<svg width="15" height="15" viewBox="0 0 15 15" fill="none" xmlns="http://www.w3.org/2000/svg">
<path d="M13.4991 0H1.50085C0.673678 0 0 0.673678 0 1.50085V10.4974C0 11.3246 0.673678 11.9983 1.50085 11.9983H13.4991C14.3263 11.9983 15 11.3246 15 10.4974V1.50085C15 0.673678 14.3263 0 13.4991 0ZM1.50085 10.2672V1.50085H13.4991V10.2672H1.50085Z" fill="#16205B"/>
<path d="M10.4975 13.4993H4.50262C4.0933 13.4993 3.7522 13.8318 3.7522 14.2497C3.7522 14.6675 4.08477 15.0001 4.50262 15.0001H10.4975C10.9068 15.0001 11.2479 14.6675 11.2479 14.2497C11.2479 13.8318 10.9154 13.4993 10.4975 13.4993Z" fill="#16205B"/>
<path d="M11.2137 2.64355H3.77761C3.45356 2.64355 3.18921 2.90791 3.18921 3.23196C3.18921 3.55601 3.45356 3.82036 3.77761 3.82036H11.2137C11.5377 3.82036 11.8021 3.55601 11.8021 3.23196C11.8021 2.90791 11.5377 2.64355 11.2137 2.64355Z" fill="#16205B"/>
<path d="M11.2137 4.44287H3.77761C3.45356 4.44287 3.18921 4.70723 3.18921 5.03127C3.18921 5.35532 3.45356 5.61968 3.77761 5.61968H11.2137C11.5377 5.61968 11.8021 5.35532 11.8021 5.03127C11.8021 4.70723 11.5377 4.44287 11.2137 4.44287Z" fill="#16205B"/>
<path d="M11.8021 6.83059C11.8021 6.50654 11.5377 6.24219 11.2137 6.24219H3.77761C3.45356 6.24219 3.18921 6.50654 3.18921 6.83059C3.18921 7.15464 3.45356 7.41899 3.77761 7.41899H11.2137C11.5377 7.41899 11.7935 7.15464 11.8021 6.83059Z" fill="#16205B"/>
<path d="M3.77761 8.0415C3.45356 8.0415 3.18921 8.30586 3.18921 8.62991C3.18921 8.95395 3.45356 9.21831 3.77761 9.21831H7.74293C8.06698 9.21831 8.33134 8.95395 8.33134 8.62991C8.33134 8.30586 8.06698 8.0415 7.74293 8.0415H3.77761Z" fill="#16205B"/>
</svg>
