<svg width="32" height="36" viewBox="0 0 32 36" fill="none" xmlns="http://www.w3.org/2000/svg">
<path d="M20.8723 31.8122C21.3384 31.5893 21.8032 31.3038 22.2019 30.9572V33.018C22.2019 34.6641 19.4055 36 15.9574 36C12.5072 36 9.71086 34.6648 9.71086 33.018V30.9572C10.1095 31.3038 10.5736 31.5893 11.0405 31.8122C12.5234 32.5195 14.3248 32.7987 15.9574 32.7987C17.5894 32.7987 19.3894 32.5195 20.8723 31.8122ZM9.71086 26.4825V28.6552C9.71086 30.3033 12.5072 31.6385 15.9574 31.6385C19.4055 31.6385 22.2019 30.3033 22.2019 28.6552V26.4825C20.8863 27.6342 18.5801 28.3999 15.9574 28.3999C13.332 28.3999 11.0264 27.6349 9.71086 26.4825ZM15.9567 21.2723C12.5163 21.2723 9.71016 22.6118 9.71016 24.2557C9.71016 25.8982 12.5163 27.2377 15.9567 27.2377C19.395 27.2377 22.2012 25.8982 22.2012 24.2557C22.2012 22.6118 19.395 21.2723 15.9567 21.2723ZM31.912 0.600469V11.6578C31.912 11.989 31.6427 12.2576 31.3144 12.2576H24.1805C23.8514 12.2576 23.5828 11.9883 23.5828 11.6578V3.08531H26.0859C26.4066 3.08531 26.666 2.82445 26.666 2.50523V0H31.3137C31.6427 0 31.912 0.269297 31.912 0.600469ZM30.5009 8.415C30.5009 8.09437 30.2414 7.83492 29.9208 7.83492H25.5741C25.2534 7.83492 24.994 8.09437 24.994 8.415C24.994 8.73563 25.2534 8.99508 25.5741 8.99508H29.9208C30.2414 8.99508 30.5009 8.73633 30.5009 8.415ZM30.5009 4.59422C30.5009 4.27359 30.2414 4.01203 29.9208 4.01203H25.5741C25.2534 4.01203 24.994 4.27289 24.994 4.59422C24.994 4.91344 25.2534 5.1743 25.5741 5.1743H29.9208C30.2414 5.1743 30.5009 4.91344 30.5009 4.59422ZM25.5059 0.193359L23.7741 1.92305H25.5059V0.193359ZM11.7914 11.6578V3.08531H14.2945C14.6152 3.08531 14.8746 2.82445 14.8746 2.50523V0H19.5223C19.8513 0 20.1199 0.269297 20.1199 0.599766V11.6578C20.1199 11.989 19.8506 12.2576 19.5223 12.2576H12.3891C12.0607 12.2576 11.7914 11.989 11.7914 11.6578ZM13.2026 4.59422C13.2026 4.91344 13.462 5.1743 13.7827 5.1743H18.1294C18.45 5.1743 18.7095 4.91344 18.7095 4.59422C18.7095 4.27359 18.45 4.01203 18.1294 4.01203H13.7827C13.4613 4.01203 13.2026 4.27359 13.2026 4.59422ZM13.2026 8.415C13.2026 8.73563 13.462 8.99508 13.7827 8.99508H18.1294C18.45 8.99508 18.7095 8.73563 18.7095 8.415C18.7095 8.09437 18.45 7.83492 18.1294 7.83492H13.7827C13.4613 7.83492 13.2026 8.09437 13.2026 8.415ZM13.7145 0.193359L11.9848 1.92305H13.7145V0.193359ZM7.73156 12.2576H0.599766C0.268594 12.2576 0 11.9883 0 11.6578V3.08531H2.50312C2.82375 3.08531 3.08531 2.82445 3.08531 2.50523V0H7.73156C8.06273 0 8.33133 0.269297 8.33133 0.599766V11.6578C8.33133 11.989 8.06203 12.2576 7.73156 12.2576ZM6.92016 8.415C6.92016 8.09437 6.6593 7.83492 6.33797 7.83492H1.99125C1.67062 7.83492 1.41117 8.09437 1.41117 8.415C1.41117 8.73563 1.67062 8.99508 1.99125 8.99508H6.33797C6.6593 8.99508 6.92016 8.73633 6.92016 8.415ZM6.92016 4.59422C6.92016 4.27359 6.6593 4.01203 6.33797 4.01203H1.99125C1.67062 4.01203 1.41117 4.27289 1.41117 4.59422C1.41117 4.91344 1.67062 5.1743 1.99125 5.1743H6.33797C6.6593 5.1743 6.92016 4.91344 6.92016 4.59422ZM1.92375 0.193359L0.194063 1.92305H1.92375V0.193359ZM27.8916 14.0041C27.5766 13.9444 27.2735 14.1497 27.2137 14.4647C27.0084 15.5391 26.5282 16.4236 25.8363 17.1612C25.418 17.6098 24.9195 18.0063 24.3555 18.3649L24.5088 17.9023C24.6108 17.5992 24.4448 17.2723 24.1418 17.1731C23.8388 17.0712 23.5118 17.2371 23.4127 17.5402L22.8045 19.362C22.7468 19.5054 22.7468 19.6748 22.8185 19.826C22.8543 19.9028 22.9066 19.9707 22.9718 20.0248C23.037 20.0789 23.1133 20.1179 23.1954 20.1389L25.0193 20.7471C25.3223 20.847 25.6493 20.6831 25.7484 20.3801C25.8504 20.077 25.6845 19.7501 25.3814 19.6502L24.7957 19.4548C25.5094 19.0181 26.145 18.5217 26.6794 17.9501C27.5182 17.0529 28.1025 15.9806 28.3514 14.6813C28.4119 14.3684 28.2066 14.0639 27.8916 14.0041ZM8.49867 17.5395C8.39883 17.2364 8.07188 17.0712 7.76953 17.1724C7.46649 17.2723 7.30336 17.5992 7.4025 17.9016L7.55578 18.3642C6.99187 18.0056 6.49336 17.6091 6.075 17.1605C5.38523 16.4229 4.90289 15.5384 4.69758 14.464C4.63781 14.149 4.33477 13.9437 4.01977 14.0034C3.70687 14.0632 3.49945 14.3684 3.55922 14.6813C3.80813 15.9806 4.39242 17.0529 5.23125 17.9501C5.76562 18.5224 6.40125 19.0181 7.11492 19.4548L6.52922 19.6502C6.22617 19.7501 6.06305 20.077 6.16219 20.3801C6.26133 20.6831 6.58898 20.8463 6.89133 20.7471L8.71734 20.1389C8.87695 20.0967 9.01617 19.9877 9.09211 19.826C9.16594 19.6748 9.16383 19.5054 9.10617 19.362L8.49867 17.5395ZM15.9567 13.9922C15.6361 13.9922 15.3745 14.253 15.3745 14.5744V17.5001L14.9822 17.1056C14.7551 16.8785 14.3859 16.8785 14.1609 17.1056C14.1069 17.1595 14.0641 17.2235 14.0349 17.294C14.0056 17.3644 13.9906 17.44 13.9906 17.5163C13.9906 17.5925 14.0056 17.6681 14.0349 17.7385C14.0641 17.809 14.1069 17.873 14.1609 17.9269L15.5461 19.312C15.7711 19.5391 16.1402 19.5391 16.3652 19.312L17.7504 17.9269C17.8044 17.873 17.8472 17.809 17.8765 17.7385C17.9057 17.6681 17.9207 17.5925 17.9207 17.5163C17.9207 17.44 17.9057 17.3644 17.8765 17.294C17.8472 17.2235 17.8044 17.1595 17.7504 17.1056C17.5254 16.8785 17.1562 16.8785 16.9312 17.1056L16.5368 17.5001V14.5744C16.5368 14.253 16.2759 13.9922 15.9567 13.9922Z" fill="#45556C"/>
</svg>
