<svg width="33" height="32" viewBox="0 0 33 32" fill="none" xmlns="http://www.w3.org/2000/svg">
<path d="M26.0017 19.5306L23.9246 17.4534C23.1098 16.6386 21.7818 16.6386 20.967 17.4534C20.731 17.6899 20.555 17.9794 20.4537 18.2977C19.7193 18.0417 18.8724 18.2079 18.2868 18.7935C17.9799 19.1004 17.7896 19.4797 17.7132 19.8763C17.0727 19.7851 16.4066 20.0036 15.9416 20.4686C15.7594 20.6498 15.6126 20.8634 15.5087 21.0984L14.308 19.8977C13.5173 19.107 12.1397 19.1097 11.3504 19.8977C10.9551 20.293 10.7366 20.8183 10.7366 21.3772C10.7366 21.936 10.955 22.4613 11.3504 22.8566L16.4735 27.9797H15.4109C13.5642 27.9797 12.0607 29.4833 12.0607 31.3299C12.0607 31.6998 12.3609 32 12.7307 32H20.8383C24.8653 32.0001 28.1418 28.7236 28.1418 24.6966C28.1418 22.7454 27.382 20.9122 26.0017 19.5306ZM20.8383 30.66H13.5148C13.7922 29.8801 14.5373 29.3199 15.4097 29.3186H18.0899C18.3605 29.3186 18.6058 29.155 18.709 28.9045C18.76 28.7821 18.7735 28.6473 18.7477 28.5173C18.7219 28.3872 18.6581 28.2678 18.5642 28.1741L12.298 21.9078C12.2278 21.8384 12.1721 21.7558 12.1342 21.6647C12.0962 21.5736 12.0767 21.4758 12.0769 21.3772C12.0769 21.1775 12.1559 20.9885 12.298 20.8465C12.5821 20.5637 13.0766 20.5624 13.3606 20.8465L17.6181 25.1039C17.8794 25.3653 18.3042 25.3653 18.5656 25.1039C18.6908 24.9778 18.7611 24.8073 18.7611 24.6295C18.7611 24.4518 18.6908 24.2813 18.5656 24.1552L16.8904 22.48C16.7484 22.3393 16.6706 22.149 16.6706 21.9493C16.6706 21.7497 16.7483 21.5607 16.8904 21.4187C17.1746 21.1346 17.669 21.1346 17.9531 21.4187L18.9582 22.4237C19.2195 22.6851 19.6443 22.6851 19.9056 22.4237C20.0356 22.2924 20.1013 22.1209 20.1013 21.9493C20.1013 21.7778 20.0357 21.6063 19.9056 21.4763L19.2356 20.8062C19.0935 20.6655 19.0158 20.4752 19.0158 20.2755C19.0158 20.0758 19.0935 19.8869 19.2356 19.7449C19.529 19.4514 20.0048 19.4514 20.2982 19.7449L20.9683 20.4149C21.2296 20.6762 21.6544 20.6762 21.9158 20.4149C22.0411 20.2888 22.1114 20.1183 22.1114 19.9405C22.1114 19.769 22.0471 19.5975 21.9158 19.4661C21.6223 19.1727 21.6223 18.697 21.9158 18.4035C22.2092 18.11 22.6849 18.11 22.9784 18.4035L25.0556 20.4806C26.1813 21.6063 26.8017 23.1045 26.8017 24.6966C26.8018 27.9852 24.1269 30.66 20.8383 30.66ZM4.69033 17.9291C2.10392 17.9291 0 20.0331 0 22.6195C0 25.2058 2.10392 27.3098 4.69033 27.3098C7.27673 27.3098 9.38065 25.2059 9.38065 22.6195C9.38059 20.0331 7.27667 17.9291 4.69033 17.9291ZM4.69033 25.9697C2.84371 25.9697 1.34013 24.4661 1.34013 22.6195C1.34013 20.7729 2.84371 19.2693 4.69033 19.2693C6.53694 19.2693 8.04052 20.7729 8.04052 22.6195C8.04052 24.4661 6.53694 25.9697 4.69033 25.9697ZM26.0794 7.57566C25.7395 7.42146 25.4283 7.21077 25.1588 6.95252C24.8921 6.69522 24.4673 6.70596 24.2113 6.97394C23.9554 7.24198 23.9648 7.66674 24.2327 7.9214C24.6101 8.2827 25.0454 8.57805 25.5206 8.79512C25.6117 8.83532 25.7068 8.85542 25.7993 8.85542C26.0539 8.85542 26.2978 8.71069 26.4104 8.46414C26.5632 8.12643 26.4158 7.72975 26.0794 7.57566ZM25.727 0.174359C25.2428 0.368411 24.7944 0.641972 24.4003 0.983751C24.1216 1.22497 24.0907 1.64841 24.3333 1.92719C24.3961 1.99993 24.4739 2.05829 24.5613 2.0983C24.6487 2.13831 24.7437 2.15903 24.8398 2.15905C24.9953 2.15905 25.1521 2.10547 25.2767 1.99692C25.5608 1.75168 25.8797 1.55601 26.2268 1.41668C26.5698 1.27999 26.7361 0.888709 26.598 0.545605C26.46 0.20382 26.0701 0.036351 25.727 0.174359ZM24.155 5.00401C24.1323 4.84647 24.1211 4.68748 24.1216 4.5283C24.1216 4.31121 24.143 4.09945 24.1819 3.8931C24.2515 3.52858 24.0143 3.17749 23.6512 3.10783C23.284 3.03949 22.9356 3.27668 22.8659 3.6385C22.8093 3.93081 22.781 4.22791 22.7815 4.52566C22.7815 4.7535 22.7963 4.97593 22.827 5.19435C22.8766 5.52803 23.162 5.76924 23.4904 5.76924C23.5225 5.76924 23.5547 5.76654 23.5869 5.76252C23.954 5.71026 24.2073 5.36985 24.155 5.00401ZM30.1949 0.709054C29.7699 0.404373 29.2964 0.173747 28.7945 0.0269285C28.4407 -0.0762791 28.0668 0.126116 27.9623 0.481218C27.9374 0.565689 27.9294 0.654236 27.9388 0.741795C27.9482 0.829353 27.9747 0.914205 28.0169 0.991497C28.0591 1.06879 28.1161 1.137 28.1847 1.19224C28.2533 1.24748 28.3321 1.28865 28.4166 1.31341C28.7743 1.4179 29.1118 1.58191 29.4149 1.79854C29.5282 1.87988 29.6642 1.92349 29.8036 1.92317C30.0126 1.92317 30.2177 1.82537 30.3503 1.64307C30.566 1.34294 30.4964 0.924829 30.1949 0.709054ZM29.2836 7.3465C28.9701 7.54862 28.6249 7.69674 28.2624 7.78471C27.9033 7.87184 27.6822 8.23366 27.7693 8.5941C27.8429 8.90096 28.1177 9.106 28.4192 9.106C28.4715 9.106 28.5251 9.10066 28.5787 9.08721C29.0861 8.96345 29.5694 8.75601 30.0086 8.47343C30.3209 8.27374 30.4093 7.85833 30.2096 7.54745C30.0099 7.23526 29.5958 7.14819 29.2836 7.3465ZM31.9745 3.20695C31.8699 2.85317 31.5014 2.65216 31.1423 2.75267C30.7872 2.85851 30.5834 3.22976 30.688 3.58486C30.7777 3.88908 30.822 4.20668 30.822 4.5283C30.822 4.9035 30.7603 5.27337 30.6383 5.62451C30.5177 5.97428 30.7027 6.3562 31.0524 6.47681C31.1233 6.50043 31.1975 6.51265 31.2722 6.51299C31.5496 6.51299 31.8096 6.3388 31.9061 6.06272C32.0763 5.57087 32.1621 5.05496 32.1621 4.52962C32.1623 4.08208 32.0992 3.63677 31.9745 3.20695ZM12.0554 10.8414C11.7096 11.1371 11.3691 11.4391 11.0343 11.7473C10.7622 11.9979 10.7435 12.4227 10.9941 12.6948C11.1254 12.8395 11.3064 12.9119 11.4873 12.9119C11.6494 12.9119 11.8116 12.8543 11.9416 12.7363C12.2605 12.4415 12.5915 12.1493 12.9265 11.8599C13.2079 11.6187 13.2414 11.1952 13.0002 10.9151C12.759 10.6324 12.3369 10.6029 12.0554 10.8414ZM9.09251 13.6784C8.77959 14.0166 8.4766 14.3638 8.18393 14.7197C7.94944 15.0064 7.99096 15.4285 8.27772 15.6631C8.39699 15.7612 8.54671 15.8148 8.70116 15.8146C8.89546 15.8146 9.08711 15.7301 9.2211 15.5693C9.49638 15.2336 9.78195 14.9065 10.0774 14.5884C10.328 14.3163 10.3119 13.8929 10.0399 13.6409C9.76653 13.3903 9.34441 13.4064 9.09251 13.6784Z" fill="#99A1AF"/>
<path d="M7.49778 16.7634C7.16944 16.5918 6.76477 16.7192 6.59322 17.0475C6.33593 17.542 6.15231 18.0111 6.04779 18.4439C5.96066 18.8044 6.18177 19.1662 6.54228 19.2519C6.59586 19.2653 6.64812 19.2707 6.70039 19.2707C7.00323 19.2707 7.27799 19.0644 7.35035 18.7574C7.42944 18.4318 7.57417 18.0646 7.78184 17.668C7.95207 17.3396 7.82612 16.9349 7.49778 16.7634ZM23.4609 5.14755C23.3979 4.7817 23.0522 4.54049 22.6877 4.59809C22.2669 4.67046 21.7939 4.7991 21.2819 4.98272C20.9335 5.10866 20.7526 5.49197 20.8772 5.84035C20.9241 5.97016 21.0099 6.08237 21.1228 6.16173C21.2357 6.24109 21.3704 6.28374 21.5084 6.2839C21.5856 6.28407 21.6622 6.27091 21.7349 6.24502C22.1717 6.08822 22.5684 5.97836 22.9115 5.92069C23.2773 5.85775 23.5226 5.51201 23.4609 5.14755ZM18.7545 6.14721C18.3516 6.36521 17.9544 6.59354 17.5632 6.83197C17.2469 7.02495 17.1451 7.43633 17.3367 7.75261C17.3965 7.85125 17.4807 7.9328 17.5811 7.98938C17.6816 8.04595 17.795 8.07563 17.9103 8.07555C18.0282 8.07555 18.1475 8.04339 18.2574 7.97775C18.6433 7.74457 19.0226 7.52616 19.3938 7.32515C19.7194 7.14825 19.8401 6.74221 19.6632 6.41657C19.4862 6.09231 19.0802 5.97032 18.7545 6.14721ZM15.281 8.33021C14.9101 8.59291 14.5433 8.8614 14.1808 9.13558C13.8846 9.35802 13.8257 9.77882 14.0494 10.0736C14.1808 10.2492 14.3818 10.3403 14.5841 10.3403C14.7248 10.3403 14.8669 10.2961 14.9875 10.2049C15.3387 9.93908 15.6943 9.67907 16.0542 9.42498C16.357 9.21058 16.4294 8.79248 16.215 8.49096C16.0006 8.18818 15.5838 8.11582 15.281 8.33021Z" fill="#99A1AF"/>
</svg>
