<svg width="35" height="36" viewBox="0 0 35 36" fill="none" xmlns="http://www.w3.org/2000/svg">
<path d="M2.71463 23.7065H0.0755679C0.0348774 23.7065 0 23.7414 0 23.7821V35.0766C0 35.1172 0.0348774 35.1521 0.0755679 35.1521H2.71463C2.75532 35.1521 2.7902 35.1172 2.7902 35.0766V23.7821C2.79601 23.7414 2.76114 23.7065 2.71463 23.7065ZM31.2735 28.1999C30.8608 27.979 30.3841 27.9441 29.9598 28.0952L21.2869 31.2052C20.8505 31.4449 20.3607 31.5708 19.8627 31.5714H12.7535C12.4338 31.5714 12.1722 31.3098 12.1722 30.9901C12.1722 30.6704 12.4338 30.4088 12.7535 30.4088H19.8627C20.165 30.4088 20.4557 30.3332 20.7056 30.1995C20.7347 30.1763 20.7696 30.1588 20.8044 30.1472C21.1881 29.9147 21.4613 29.5368 21.531 29.1009C21.6066 28.63 21.4845 28.1708 21.1765 27.8104C20.8742 27.4558 20.4382 27.2524 19.9732 27.2524H16.0611C14.9276 27.2524 13.7941 26.8455 12.8698 26.1072C11.3294 24.8807 8.14971 23.2356 3.94697 25.8166V33.4722C4.9933 33.4722 7.23708 33.6524 10.3935 34.8905C13.3232 36.0357 16.4389 36.3031 19.4035 35.652C22.4495 34.9894 26.9894 33.6408 31.3491 30.9726C31.7037 30.7576 31.9652 30.3855 32.0641 29.967C32.2443 29.2695 31.9129 28.5428 31.2735 28.1999ZM9.77733 14.9464H13.2651V21.9219H9.77733V14.9464ZM15.5961 17.8529H19.0838V21.9161H15.5961V17.8529ZM21.409 12.0342H24.8967V21.9161H21.409V12.0342ZM27.2277 9.1277H30.7155V21.9161H27.2277V9.1277ZM34.2671 0.169995C34.2134 0.116107 34.1495 0.0733549 34.0792 0.0441848C34.0089 0.0150147 33.9335 0 33.8573 0C33.7812 0 33.7058 0.0150147 33.6355 0.0441848C33.5652 0.0733549 33.5013 0.116107 33.4475 0.169995L30.5992 3.01832C30.2911 2.83231 29.9365 2.72187 29.5587 2.72187C28.5937 2.72187 27.7857 3.39616 27.5823 4.30298H25.4257C25.2164 3.40198 24.4143 2.72187 23.4493 2.72187C22.3274 2.72187 21.4148 3.63449 21.4148 4.75639C21.4148 5.06447 21.4904 5.35512 21.6124 5.6167L18.2061 9.02307C17.9445 8.901 17.6538 8.82543 17.3457 8.82543C16.9563 8.82543 16.5959 8.94169 16.282 9.13351L13.3174 6.16893C13.4685 5.88409 13.5615 5.56438 13.5615 5.22142C13.5615 4.09953 12.6489 3.1869 11.527 3.1869C10.4051 3.1869 9.49249 4.09953 9.49249 5.22142C9.49249 6.34331 10.4051 7.25594 11.527 7.25594C11.8816 7.25594 12.2129 7.15712 12.5036 6.99436L15.5089 9.99964C15.3868 10.2612 15.3112 10.5519 15.3112 10.8599C15.3112 11.9818 16.2239 12.8945 17.3457 12.8945C18.4676 12.8945 19.3803 11.9818 19.3803 10.8599C19.3803 10.4705 19.264 10.1101 19.0722 9.79619L22.3855 6.48282C22.6936 6.67465 23.0598 6.79091 23.4493 6.79091C24.3212 6.79091 25.0595 6.23868 25.3501 5.46556H27.6637C27.9543 6.23868 28.6926 6.79091 29.5645 6.79091C30.6864 6.79091 31.599 5.87828 31.599 4.75639C31.599 4.44249 31.5176 4.14603 31.3898 3.87864L34.273 0.995429C34.4939 0.762913 34.4939 0.396699 34.2671 0.169995Z" fill="#45556C"/>
</svg>
