<svg width="18" height="18" viewBox="0 0 18 18" fill="none" xmlns="http://www.w3.org/2000/svg">
<path d="M12.8184 0.111575C13.6088 0.00790685 14.3431 -0.0314965 14.9561 0.0275905C15.5395 0.0838324 16.1505 0.240921 16.5401 0.660403C16.9179 1.06743 17.0418 1.67943 17.0742 2.26197C17.1084 2.87631 17.0471 3.60993 16.9229 4.39966C16.6736 5.98338 16.1561 7.88918 15.5352 9.71607C14.914 11.5438 14.1797 13.3207 13.4863 14.6458C13.1415 15.3048 12.7948 15.8751 12.4649 16.2874C12.3007 16.4925 12.1229 16.6807 11.9346 16.8206C11.7559 16.9532 11.4956 17.096 11.1826 17.0823C10.6793 17.06 10.2968 16.7841 10.0156 16.4192C9.74621 16.0695 9.53286 15.595 9.34377 15.0471C8.96464 13.9485 8.60852 12.3283 8.14943 10.2405C8.05095 9.7927 7.96798 9.64023 7.89357 9.55982C7.8777 9.54271 7.85766 9.52553 7.83303 9.50708C7.80706 9.49324 7.78204 9.47798 7.75783 9.46021C7.66245 9.40706 7.51364 9.34506 7.26271 9.27466C7.00203 9.20152 6.60648 9.12129 6.10842 9.01978C5.95543 8.9886 5.79266 8.95571 5.62111 8.92017C4.91175 8.77319 4.08643 8.59165 3.30178 8.35767C2.52542 8.12615 1.74419 7.82997 1.14455 7.43775C0.557194 7.05347 0.00524075 6.48105 1.88915e-05 5.67115C-0.00190122 5.36277 0.142884 5.10688 0.280292 4.927C0.424389 4.73844 0.616281 4.56121 0.826191 4.39673C1.24792 4.06631 1.82825 3.72206 2.49709 3.38208C3.84116 2.6989 5.63638 1.98548 7.47756 1.39282C9.31747 0.800593 11.233 0.31952 12.8184 0.111575ZM14.836 1.27173C14.3551 1.2254 13.7249 1.25319 12.9805 1.35083C11.496 1.54557 9.65889 2.00433 7.86037 2.58325C6.06291 3.16184 4.33285 3.85114 3.0635 4.49634C2.42601 4.82038 1.92744 5.12183 1.59768 5.38013C1.43191 5.51 1.32893 5.6132 1.27346 5.68579C1.26505 5.6968 1.25896 5.70655 1.25393 5.71411C1.27591 5.88961 1.41129 6.11854 1.82912 6.39185C2.27645 6.68445 2.91994 6.93897 3.6592 7.15943C4.39007 7.37737 5.17213 7.54992 5.87502 7.69556C6.02565 7.72677 6.17444 7.75785 6.31935 7.78736C6.83042 7.89141 7.29193 7.98493 7.6006 8.07154C7.73731 8.1099 7.87061 8.15152 7.99904 8.19947L10.5996 5.59986C10.8437 5.35578 11.2403 5.35578 11.4844 5.59986C11.7281 5.84392 11.7282 6.23968 11.4844 6.48365L9.00197 8.96411C9.18734 9.25899 9.28897 9.60291 9.37014 9.97193C9.83682 12.0943 10.1759 13.6271 10.5254 14.6399C10.7007 15.1476 10.8613 15.4688 11.0059 15.6565C11.0861 15.7605 11.1442 15.803 11.1836 15.8206C11.1854 15.8193 11.1876 15.8181 11.1895 15.8167C11.2584 15.7655 11.3589 15.6678 11.4883 15.5061C11.7455 15.1848 12.0496 14.695 12.3789 14.0657C13.0341 12.8135 13.7445 11.0999 14.3516 9.31372C14.9589 7.52676 15.4532 5.69432 15.6875 4.20532C15.805 3.45885 15.8535 2.82209 15.8262 2.3313C15.7971 1.80934 15.6889 1.58099 15.624 1.51099C15.5598 1.44182 15.3465 1.32094 14.836 1.27173Z" fill="white"/>
</svg>
