<svg width="86" height="86" viewBox="0 0 86 86" fill="none" xmlns="http://www.w3.org/2000/svg">
<path d="M37.4912 2.26074C40.2338 -0.0843851 44.7593 -0.0891598 47.5498 2.25879V2.25977L54.2646 8.03906C54.9601 8.64152 55.931 9.16703 56.9346 9.54199C57.9385 9.91707 59.0193 10.1582 59.9463 10.1582H67.1709C71.3997 10.1582 74.8739 13.6316 74.874 17.8604V25.0859C74.8741 25.9923 75.1148 27.0734 75.4893 28.0811C75.8637 29.0886 76.3895 30.0709 76.9932 30.7676L82.7715 37.4795V37.4805C85.1177 40.2245 85.1202 44.7528 82.7686 47.543L76.9932 54.2529C76.3904 54.9484 75.8644 55.9199 75.4893 56.9238C75.1142 57.9277 74.874 59.0086 74.874 59.9355V67.1602C74.874 71.389 71.3998 74.8633 67.1709 74.8633H59.9463C59.0399 74.8633 57.9589 75.1041 56.9512 75.4785C55.9439 75.8528 54.9613 76.378 54.2646 76.9814L47.5508 82.7607C44.8076 85.106 40.2815 85.11 37.4912 82.7607L30.7773 76.9814C30.082 76.3793 29.1115 75.8543 28.1084 75.4795C27.1046 75.1044 26.0236 74.8634 25.0967 74.8633H17.7441C13.5153 74.8633 10.041 71.389 10.041 67.1602V59.8936C10.041 58.9868 9.79944 57.9162 9.43066 56.9199C9.06169 55.9232 8.54873 54.9545 7.9707 54.2607L7.96777 54.2568L2.22949 47.499C-0.0771678 44.7523 -0.0765446 40.2652 2.23145 37.5195L2.23047 37.5186L7.96777 30.7646L7.9707 30.7607C8.54873 30.0671 9.06167 29.0983 9.43066 28.1016C9.79944 27.1053 10.041 26.0347 10.041 25.1279V17.8184C10.041 13.5895 13.5153 10.1152 17.7441 10.1152H25.0967C26.003 10.1152 27.0842 9.87441 28.0918 9.5C29.0984 9.12593 30.0799 8.60096 30.7764 7.99805L37.4912 2.26074Z" fill="#EFF3F9" stroke="#E2E8F0"/>
</svg>
