<svg width="36" height="36" viewBox="0 0 36 36" fill="none" xmlns="http://www.w3.org/2000/svg">
<path d="M4.23322 23.4175L0.0397959 27.6109C-0.0307284 27.6781 -0.00436088 27.7997 0.0939373 27.8289L5.14441 29.363C5.49677 29.4699 5.81733 29.6621 6.0777 29.9224C6.33807 30.1828 6.53021 30.5034 6.63709 30.8557L8.17126 35.9062C8.20037 36.0045 8.32201 36.0309 8.38923 35.9603L14.0001 30.3495C9.84873 29.3182 6.42144 26.7302 4.23322 23.4175ZM35.9607 27.6109L31.7672 23.4175C29.5946 26.7065 26.178 29.3117 22.0002 30.3495L27.6111 35.9604C27.6783 36.0309 27.8 36.0046 27.8291 35.9063L29.3632 30.8558C29.4701 30.5034 29.6623 30.1829 29.9227 29.9225C30.183 29.6621 30.5036 29.47 30.856 29.3631L35.9065 27.8289C36.005 27.7996 36.0311 27.6779 35.9607 27.6109Z" fill="#45556C"/>
<path d="M32.3628 14.3626C32.3628 6.44338 25.9202 0 18.0003 0C10.0804 0 3.6377 6.44338 3.6377 14.3626C3.6377 21.5229 8.90972 27.4909 15.7932 28.5564C24.5126 29.9127 32.3628 23.1259 32.3628 14.3626ZM6.80454 17.8627C4.43589 10.2899 10.1379 2.63457 18.0003 2.63457C26.7833 2.63457 32.5886 12.0741 28.3072 19.9573C23.3646 29.0242 9.91535 27.7575 6.80454 17.8627Z" fill="#45556C"/>
<path d="M18.0002 4.7439C12.6966 4.7439 8.38086 9.05896 8.38086 14.3626C8.38086 22.1654 17.2275 26.7158 23.5626 22.2058C24.9199 21.2424 26.0252 19.9253 26.7365 18.3865C29.6918 12.0241 24.9806 4.7439 18.0002 4.7439ZM22.8552 13.0133L16.8576 17.4648C16.4355 17.7794 15.8351 17.7372 15.4598 17.3396C12.7754 14.4789 12.9902 14.7073 12.9258 14.6397C12.4747 14.1594 12.5689 13.3825 13.1332 13.0253C13.1339 13.0246 13.1346 13.0239 13.1353 13.0239C13.5544 12.761 14.1134 12.8221 14.4642 13.1962C15.0319 13.8012 14.6498 13.394 16.3549 15.2106C16.5387 15.0736 18.7014 13.4692 21.6768 11.2612C22.1444 10.9138 22.8053 11.0116 23.1519 11.4791C23.4696 11.9055 23.4684 12.5589 22.8552 13.0133Z" fill="#45556C"/>
</svg>
