<svg width="15" height="15" viewBox="0 0 15 15" fill="none" xmlns="http://www.w3.org/2000/svg">
<path d="M13.4991 0H1.50085C0.673678 0 0 0.673678 0 1.50085V10.4974C0 11.3246 0.673678 11.9983 1.50085 11.9983H13.4991C14.3263 11.9983 15 11.3246 15 10.4974V1.50085C15 0.673678 14.3263 0 13.4991 0ZM1.50085 10.2672V1.50085H13.4991V10.2672H1.50085Z" fill="#16205B"/>
<path d="M10.4975 13.4993H4.50262C4.0933 13.4993 3.7522 13.8318 3.7522 14.2497C3.7522 14.6675 4.08477 15.0001 4.50262 15.0001H10.4975C10.9068 15.0001 11.2479 14.6675 11.2479 14.2497C11.2479 13.8318 10.9154 13.4993 10.4975 13.4993Z" fill="#16205B"/>
<path d="M10.2672 2.25122C11.1541 2.25122 11.8789 2.96754 11.8789 3.86293C11.8789 4.75833 11.1626 5.47464 10.2672 5.47464C9.37183 5.47464 8.65552 4.75833 8.65552 3.86293C8.65552 2.97606 9.37183 2.25122 10.2672 2.25122Z" fill="#16205B"/>
<path d="M12.2968 10.7789C12.1348 11.0603 11.8278 11.2223 11.4611 11.2223H3.54751C3.18082 11.2223 2.8653 11.0518 2.70328 10.7789C2.54125 10.506 2.55831 10.1478 2.74591 9.83233C3.67542 8.22914 4.54523 6.75387 5.38946 5.31271C5.57707 4.99719 5.85848 4.81812 6.18253 4.81812C6.49805 4.81812 6.80504 5.00572 6.98412 5.32124C7.38491 6.01198 7.79424 6.71124 8.19503 7.40197L8.647 8.18651L8.80049 7.91362C8.91988 7.70896 9.04779 7.47872 9.1757 7.24847C9.34626 6.95001 9.63619 6.77093 9.96024 6.77093C10.2758 6.77093 10.5742 6.95001 10.7448 7.24847C11.2735 8.16092 11.7681 9.01368 12.2542 9.84938C12.4332 10.1564 12.4503 10.5145 12.2883 10.7874L12.2968 10.7789Z" fill="#16205B"/>
</svg>
