<svg width="15" height="15" viewBox="0 0 15 15" fill="none" xmlns="http://www.w3.org/2000/svg">
<path d="M8.63178 3.21265H3.69939C2.4744 3.21265 1.47656 4.21048 1.47656 5.43547V9.55662C1.47656 10.7816 2.4744 11.7794 3.69939 11.7794H8.63178C9.85677 11.7794 10.8546 10.7816 10.8546 9.55662V9.49983L11.2927 9.84867C11.7145 10.1813 12.2743 10.2381 12.7529 10.0109C13.2316 9.77565 13.5317 9.30513 13.5317 8.7697V6.24672C13.5317 5.71129 13.2316 5.24077 12.7529 5.00551C12.2743 4.77025 11.7145 4.83515 11.2927 5.16776L10.8546 5.51659V5.45981C10.8546 4.23482 9.85677 3.23698 8.63178 3.23698V3.21265Z" fill="#16205B"/>
<path d="M13.3937 0H11.7874C11.4953 0 11.252 0.243375 11.252 0.535425C11.252 0.827474 11.4953 1.07085 11.7874 1.07085H13.3937C13.6857 1.07085 13.9291 1.31422 13.9291 1.60627V3.21255C13.9291 3.5046 14.1725 3.74797 14.4645 3.74797C14.7566 3.74797 14.9999 3.5046 14.9999 3.21255V1.60627C14.9999 0.722012 14.2779 0 13.3937 0Z" fill="#16205B"/>
<path d="M0 3.21255C0 3.5046 0.243375 3.74797 0.535425 3.74797C0.827474 3.74797 1.07085 3.5046 1.07085 3.21255V1.60627C1.07085 1.31422 1.31422 1.07085 1.60627 1.07085H3.21255C3.5046 1.07085 3.74797 0.827474 3.74797 0.535425C3.74797 0.243375 3.5046 0 3.21255 0H1.60627C0.722012 0 0 0.722012 0 1.60627V3.21255Z" fill="#16205B"/>
<path d="M3.74797 14.4645C3.74797 14.1725 3.5046 13.9291 3.21255 13.9291H1.60627C1.31422 13.9291 1.07085 13.6857 1.07085 13.3937V11.7874C1.07085 11.4953 0.827474 11.252 0.535425 11.252C0.243375 11.252 0 11.4953 0 11.7874V13.3937C0 14.2779 0.722012 14.9999 1.60627 14.9999H3.21255C3.5046 14.9999 3.74797 14.7566 3.74797 14.4645Z" fill="#16205B"/>
<path d="M14.4645 11.252C14.1725 11.252 13.9291 11.4953 13.9291 11.7874V13.3937C13.9291 13.6857 13.6857 13.9291 13.3937 13.9291H11.7874C11.4953 13.9291 11.252 14.1725 11.252 14.4645C11.252 14.7566 11.4953 14.9999 11.7874 14.9999H13.3937C14.2779 14.9999 14.9999 14.2779 14.9999 13.3937V11.7874C14.9999 11.4953 14.7566 11.252 14.4645 11.252Z" fill="#16205B"/>
</svg>
