<?xml version="1.0" encoding="UTF-8"?>
<svg xmlns="http://www.w3.org/2000/svg" viewBox="0 0 50 50">
    <path style="line-height:normal;text-indent:0;text-align:start;text-decoration-line:none;text-decoration-style:solid;text-decoration-color:#000;text-transform:none;block-progression:tb;isolation:auto;mix-blend-mode:normal" d="M 41.265625 3.0996094 A 1.0001 1.0001 0 0 0 40.578125 3.4023438 L 34.980469 9 L 40.576172 14.597656 A 1.0001 1.0001 0 1 0 41.990234 13.183594 L 38.808594 10 L 44 10 C 45.116666 10 46 10.883334 46 12 L 46 39 C 46 40.116666 45.116666 41 44 41 L 37 41 A 1.0001 1.0001 0 1 0 37 43 L 44 43 C 46.197334 43 48 41.197334 48 39 L 48 12 C 48 9.8026661 46.197334 8 44 8 L 38.808594 8 L 41.992188 4.8164062 A 1.0001 1.0001 0 0 0 41.265625 3.0996094 z M 2 6 L 2 7 L 2 12 L 32 12 L 32 6 L 2 6 z M 4 8 L 30 8 L 30 10 L 4 10 L 4 8 z M 2 15 L 2 16 L 2 22 L 32 22 L 32 15 L 2 15 z M 4 17 L 30 17 L 30 20 L 4 20 L 4 17 z M 2 25 L 2 26 L 2 33 L 32 33 L 32 25 L 2 25 z M 4 27 L 30 27 L 30 31 L 4 31 L 4 27 z M 2 36 L 2 37 L 2 45 L 32 45 L 32 36 L 2 36 z M 4 38 L 30 38 L 30 43 L 4 43 L 4 38 z"/>
</svg>